# Blender 4.2.1 LTS
# www.blender.org
mtllib quadra.mtl
o Plano
v -11.000000 0.000000 5.500000
v 11.000000 0.000000 5.500000
v -11.000000 -0.000000 -5.500000
v 11.000000 -0.000000 -5.500000
vn -0.0000 1.0000 -0.0000
vt 0.000000 0.000000
vt 1.000000 0.000000
vt 1.000000 1.000000
vt 0.000000 1.000000
s 0
usemtl court
f 1/1/1 2/2/1 4/3/1 3/4/1
o Plano.001
v -16.770786 -0.009999 10.940553
v 16.770786 -0.009999 10.940553
v -16.770786 -0.010001 -10.940553
v 16.770786 -0.010001 -10.940553
v -16.770786 -0.010000 -3.646851
v -16.770786 -0.010000 3.646851
v 16.770786 -0.010000 3.646851
v 16.770786 -0.010000 -3.646851
v -15.333557 -0.010000 3.646851
v -15.333557 -0.009999 10.002965
v 15.333557 -0.009999 10.002965
v 15.333557 -0.010000 -3.646851
v 15.333557 -0.010001 -10.002965
v -15.333557 -0.010001 -10.002965
v -15.333557 -0.010000 -3.646851
v 15.333557 -0.010000 3.646851
v -15.333557 -0.976663 3.646851
v -15.333557 -0.976662 10.002965
v 15.333557 -0.976662 10.002965
v 15.333557 -0.976663 -3.646851
v 15.333557 -0.976664 -10.002965
v -15.333557 -0.976664 -10.002965
v -15.333557 -0.976663 -3.646851
v 15.333557 -0.976663 3.646851
v -16.770786 -0.976663 3.646851
v -16.770786 -0.976662 10.940553
v 16.770786 -0.976662 10.940553
v 16.770786 -0.976663 -3.646851
v 16.770786 -0.976664 -10.940553
v -16.770786 -0.976664 -10.940553
v -16.770786 -0.976663 -3.646851
v 16.770786 -0.976663 3.646851
v -7.666779 -0.009999 10.002965
v 0.000000 -0.009999 10.002965
v 7.666779 -0.009999 10.002965
v 7.666779 -0.010001 -10.002965
v 0.000000 -0.010001 -10.002965
v -7.666779 -0.010001 -10.002965
v 7.666779 -0.010000 3.646851
v 0.000000 -0.010000 3.646851
v -7.666779 -0.010000 3.646851
v 7.666779 -0.010000 -3.646851
v 0.000000 -0.010000 -3.646851
v -7.666779 -0.010000 -3.646851
v -8.385393 -0.009999 10.940553
v 0.000000 -0.009999 10.940553
v 8.385393 -0.009999 10.940553
v 8.385393 -0.010001 -10.940553
v 0.000000 -0.010001 -10.940553
v -8.385393 -0.010001 -10.940553
v -7.666779 -0.976662 10.002965
v 0.000000 -0.976662 10.002965
v 7.666779 -0.976662 10.002965
v 7.666779 -0.976664 -10.002965
v 0.000000 -0.976664 -10.002965
v -7.666779 -0.976664 -10.002965
v 7.666779 -0.976663 3.646851
v 0.000000 -0.976663 3.646851
v -7.666779 -0.976663 3.646851
v 7.666779 -0.976663 -3.646851
v 0.000000 -0.976663 -3.646851
v -7.666779 -0.976663 -3.646851
v -8.385393 -0.976662 10.940553
v 0.000000 -0.976662 10.940553
v 8.385393 -0.976662 10.940553
v 8.385393 -0.976664 -10.940553
v 0.000000 -0.976664 -10.940553
v -8.385393 -0.976664 -10.940553
v 16.770786 -0.010001 -10.002560
v -16.770786 -0.010001 -10.002560
v 15.333557 -0.976664 -9.185550
v -15.333557 -0.976664 -9.185550
v 16.770786 -0.976664 -10.002560
v -16.770786 -0.976664 -10.002560
v -7.666779 -0.976664 -9.185550
v 0.000000 -0.976664 -9.185550
v 7.666779 -0.976664 -9.185550
v -16.770786 -0.009999 10.004096
v 16.770786 -0.009999 10.004096
v -15.333557 -0.976662 9.186888
v 15.333557 -0.976662 9.186888
v -16.770786 -0.976662 10.004096
v 16.770786 -0.976662 10.004096
v -7.666779 -0.976662 9.186888
v 0.000000 -0.976662 9.186888
v 7.666779 -0.976662 9.186888
v 7.666779 1.854214 10.002965
v 15.333557 1.854214 10.002965
v -7.666779 1.854212 -10.002965
v -15.333557 1.854212 -10.002965
v -16.770786 1.854214 10.004096
v -16.770786 1.854214 10.940553
v 8.385393 1.854214 10.940553
v 16.770786 1.854214 10.940553
v 16.770786 1.854212 -10.002560
v 16.770786 1.854212 -10.940553
v -8.385393 1.854212 -10.940553
v -16.770786 1.854212 -10.940553
v -15.333557 1.854214 10.002965
v -7.666779 1.854214 10.002965
v 0.000000 1.854214 10.002965
v 15.333557 1.854212 -10.002965
v 7.666779 1.854212 -10.002965
v 0.000000 1.854212 -10.002965
v -8.385393 1.854214 10.940553
v 0.000000 1.854214 10.940553
v 8.385393 1.854212 -10.940553
v 0.000000 1.854212 -10.940553
v -16.770786 1.854212 -10.002560
v 16.770786 1.854214 10.004096
vn -0.0000 1.0000 -0.0000
vn -0.0000 -1.0000 -0.0000
vn -1.0000 -0.0000 -0.0000
vn 1.0000 -0.0000 -0.0000
vn -0.0000 -0.0000 -1.0000
vn -0.0000 -0.0000 1.0000
vn 0.0008 -0.0000 -1.0000
vn -0.0008 -0.0000 -1.0000
vn 0.0003 -0.0000 1.0000
vn -0.0003 -0.0000 1.0000
vt 0.728575 0.666667
vt 0.957151 0.666667
vt 0.957151 0.957151
vt 0.728575 0.957151
vt 0.728575 0.042849
vt 0.957151 0.042849
vt 0.957151 0.333333
vt 0.728575 0.333333
vt 0.042849 0.333333
vt 0.042849 0.666667
vt 0.000000 0.666667
vt 0.000000 0.333333
vt 0.728575 0.919794
vt 0.957151 0.919793
vt 0.728575 0.080145
vt 0.957151 0.080145
vt 0.042849 0.080145
vt 0.000000 0.042797
vt 0.271425 0.042849
vt 0.250000 0.000000
vt 0.000000 0.000000
vt 0.042849 0.042849
vt 1.000000 0.957132
vt 1.000000 0.666667
vt 0.750000 1.000000
vt 1.000000 1.000000
vt 0.042849 0.919794
vt 0.000000 0.957132
vt 0.000000 1.000000
vt 0.042849 0.957151
vt 1.000000 0.042798
vt 1.000000 0.000000
vt 1.000000 0.333333
vt 0.250000 1.000000
vt 0.750000 0.000000
vt 0.500000 0.000000
vt 0.500000 1.000000
vt 0.271425 0.957151
vt 0.500000 0.957151
vt 0.500000 0.042849
vt 0.271425 0.666667
vt 0.271425 0.333333
vt 0.500000 0.666667
vt 0.500000 0.333333
vt 0.271425 0.080145
vt 0.500000 0.080145
vt 0.271425 0.919794
vt 0.500000 0.919794
s 0
usemtl orange
f 46/5/2 16/6/2 17/7/2 40/8/2
f 39/9/2 15/10/2 20/11/2 43/12/2
f 43/12/2 20/11/2 16/6/2 46/5/2
f 13/13/2 19/14/2 9/15/2 10/16/2
f 81/17/3 58/8/3 25/7/3 75/18/3
f 90/19/3 61/12/3 28/11/3 85/20/3
f 61/12/3 64/5/3 24/6/3 28/11/3
f 84/21/3 86/22/3 29/16/3 21/13/3
f 55/23/3 67/24/3 30/25/3 22/26/3
f 75/18/3 77/27/3 32/28/3 24/6/3
f 58/8/3 70/29/3 33/30/3 25/7/3
f 76/31/3 78/32/3 34/33/3 26/34/3
f 21/13/3 29/16/3 35/15/3 27/14/3
f 85/20/3 87/35/3 31/36/3 23/10/3
f 24/6/3 32/28/3 36/37/3 28/11/3
f 74/32/4 78/32/4 35/15/4 9/15/4
f 73/27/5 77/27/5 33/30/5 8/30/5
f 82/22/4 86/22/4 30/25/4 5/25/4
f 11/37/5 36/37/5 32/28/5 12/28/5
f 9/15/4 35/15/4 29/16/4 10/16/4
f 54/38/6 72/38/6 34/33/6 7/33/6
f 51/39/7 69/39/7 31/36/7 6/36/7
f 83/35/5 87/35/5 36/37/5 11/37/5
f 5/25/7 30/25/7 67/24/7 49/24/7
f 49/24/7 67/24/7 68/40/7 50/40/7
f 50/40/7 68/40/7 69/39/7 51/39/7
f 8/30/6 33/30/6 70/29/6 52/29/6
f 52/29/6 70/29/6 71/41/6 53/41/6
f 53/41/6 71/41/6 72/38/6 54/38/6
f 26/34/3 34/33/3 72/38/3 60/42/3
f 60/42/3 72/38/3 71/41/3 59/43/3
f 59/43/3 71/41/3 70/29/3 58/8/3
f 23/10/3 31/36/3 69/39/3 57/9/3
f 57/9/3 69/39/3 68/40/3 56/44/3
f 56/44/3 68/40/3 67/24/3 55/23/3
f 21/13/3 27/14/3 66/45/3 63/46/3
f 63/46/3 66/45/3 65/47/3 62/48/3
f 62/48/3 65/47/3 64/5/3 61/12/3
f 84/21/3 21/13/3 63/46/3 88/49/3
f 88/49/3 63/46/3 62/48/3 89/50/3
f 89/50/3 62/48/3 61/12/3 90/19/3
f 76/31/3 26/34/3 60/42/3 79/51/3
f 79/51/3 60/42/3 59/43/3 80/52/3
f 80/52/3 59/43/3 58/8/3 81/17/3
f 13/13/2 45/46/2 48/45/2 19/14/2
f 45/46/2 44/48/2 47/47/2 48/45/2
f 44/48/2 43/12/2 46/5/2 47/47/2
f 14/26/2 37/23/2 45/46/2 13/13/2
f 37/23/2 38/44/2 44/48/2 45/46/2
f 38/44/2 39/9/2 43/12/2 44/48/2
f 19/14/2 48/45/2 42/42/2 18/34/2
f 48/45/2 47/47/2 41/43/2 42/42/2
f 47/47/2 46/5/2 40/8/2 41/43/2
f 65/47/3 80/52/3 81/17/3 64/5/3
f 66/45/3 79/51/3 80/52/3 65/47/3
f 27/14/3 76/31/3 79/51/3 66/45/3
f 12/28/5 32/28/5 77/27/5 73/27/5
f 7/33/4 34/33/4 78/32/4 74/32/4
f 27/14/3 35/15/3 78/32/3 76/31/3
f 25/7/3 33/30/3 77/27/3 75/18/3
f 64/5/3 81/17/3 75/18/3 24/6/3
f 19/14/2 18/34/2 74/32/2 9/15/2
f 17/7/2 16/6/2 12/28/2 73/27/2
f 56/44/3 89/50/3 90/19/3 57/9/3
f 55/23/3 88/49/3 89/50/3 56/44/3
f 22/26/3 84/21/3 88/49/3 55/23/3
f 6/36/5 31/36/5 87/35/5 83/35/5
f 10/16/4 29/16/4 86/22/4 82/22/4
f 28/11/3 36/37/3 87/35/3 85/20/3
f 22/26/3 30/25/3 86/22/3 84/21/3
f 57/9/3 90/19/3 85/20/3 23/10/3
f 20/11/2 15/10/2 83/35/2 11/37/2
f 16/6/2 20/11/2 11/37/2 12/28/2
f 14/26/2 13/13/2 10/16/2 82/22/2
usemtl Materiais
f 83/35/5 114/35/5 98/36/5 6/36/5
f 41/43/7 108/43/7 93/42/7 42/42/7
f 92/10/2 91/9/2 105/44/2 104/23/2 103/26/2 95/22/2 96/25/2 109/24/2 110/40/2 97/39/2 98/36/2 114/35/2
f 94/34/2 93/42/2 108/43/2 107/8/2 106/7/2 99/27/2 100/30/2 111/29/2 112/41/2 101/38/2 102/33/2 113/32/2
f 50/40/7 110/40/7 109/24/7 49/24/7
f 39/9/6 91/9/6 92/10/6 15/10/6
f 51/39/7 97/39/7 110/40/7 50/40/7
f 15/10/8 92/10/8 114/35/8 83/35/8
f 14/26/6 103/26/6 104/23/6 37/23/6
f 52/29/6 111/29/6 100/30/6 8/30/6
f 74/32/4 113/32/4 102/33/4 7/33/4
f 5/25/4 96/25/4 95/22/4 82/22/4
f 42/42/7 93/42/7 94/34/7 18/34/7
f 37/23/6 104/23/6 105/44/6 38/44/6
f 53/41/6 112/41/6 111/29/6 52/29/6
f 82/22/9 95/22/9 103/26/9 14/26/9
f 6/36/7 98/36/7 97/39/7 51/39/7
f 18/34/10 94/34/10 113/32/10 74/32/10
f 38/44/6 105/44/6 91/9/6 39/9/6
f 54/38/6 101/38/6 112/41/6 53/41/6
f 8/30/5 100/30/5 99/27/5 73/27/5
f 17/7/7 106/7/7 107/8/7 40/8/7
f 7/33/6 102/33/6 101/38/6 54/38/6
f 73/27/11 99/27/11 106/7/11 17/7/11
f 40/8/7 107/8/7 108/43/7 41/43/7
f 49/24/7 109/24/7 96/25/7 5/25/7
